<svg xmlns="http://www.w3.org/2000/svg" xmlns:xlink="http://www.w3.org/1999/xlink" width="250" zoomAndPan="magnify" viewBox="0 0 187.5 187.499992" height="250" preserveAspectRatio="xMidYMid meet" version="1.0"><defs><clipPath id="a7d5dbb04c"><path d="M 50 45 L 138 45 L 138 175.03125 L 50 175.03125 Z M 50 45 " clip-rule="nonzero"/></clipPath><clipPath id="65c682152b"><path d="M 90 12.28125 L 98 12.28125 L 98 32 L 90 32 Z M 90 12.28125 " clip-rule="nonzero"/></clipPath><clipPath id="83c773c836"><path d="M 20.328125 62 L 40 62 L 40 74 L 20.328125 74 Z M 20.328125 62 " clip-rule="nonzero"/></clipPath><clipPath id="6fb8489691"><path d="M 20.328125 103 L 40 103 L 40 115 L 20.328125 115 Z M 20.328125 103 " clip-rule="nonzero"/></clipPath></defs><g clip-path="url(#a7d5dbb04c)"><path fill="#0e153a" d="M 93.800781 45.238281 C 92.859375 45.238281 91.902344 45.269531 90.957031 45.328125 C 69.300781 46.714844 51.902344 64.054688 50.484375 85.660156 C 49.734375 97.152344 53.460938 108.25 60.980469 116.910156 C 62.136719 118.242188 64.457031 121.933594 67.023438 131.667969 C 68.195312 136.109375 70.710938 140.003906 74.296875 142.925781 L 74.800781 143.339844 L 74.800781 154.769531 C 74.800781 160.113281 78.25 164.851562 83.347656 166.503906 L 84.1875 166.773438 L 84.285156 167.65625 C 84.289062 167.695312 84.296875 167.738281 84.300781 167.777344 C 84.816406 171.984375 88.609375 175.03125 92.855469 175.03125 L 95.570312 175.03125 C 99.820312 175.03125 103.613281 171.984375 104.128906 167.777344 C 104.132812 167.738281 104.136719 167.695312 104.140625 167.65625 L 104.238281 166.777344 L 105.078125 166.503906 C 110.175781 164.851562 113.625 160.117188 113.625 154.769531 L 113.625 142.554688 L 114.070312 142.152344 C 117.203125 139.292969 119.417969 135.601562 120.480469 131.480469 C 122.886719 122.128906 125.171875 118.570312 126.320312 117.28125 C 133.355469 109.359375 137.230469 99.160156 137.230469 88.5625 C 137.230469 64.671875 117.746094 45.238281 93.800781 45.238281 Z M 107.5625 154.871094 C 107.5625 157.734375 105.714844 160.265625 102.988281 161.152344 C 102.988281 161.152344 100.019531 162.289062 98.980469 162.453125 C 96.625 162.824219 91.796875 162.820312 89.441406 162.449219 C 88.398438 162.285156 85.429688 161.152344 85.429688 161.152344 C 82.710938 160.269531 80.867188 157.742188 80.867188 154.886719 L 80.867188 145.882812 C 83.152344 146.804688 85.640625 147.304688 88.214844 147.304688 L 99.28125 147.304688 C 102.214844 147.304688 105.023438 146.65625 107.5625 145.476562 Z M 121.511719 113.03125 C 118.753906 116.140625 116.382812 121.65625 114.265625 129.886719 C 112.515625 136.667969 106.449219 141.40625 99.515625 141.40625 L 87.9375 141.40625 C 81.046875 141.40625 75 136.734375 73.234375 130.039062 C 70.992188 121.539062 68.570312 115.871094 65.828125 112.714844 C 59.425781 105.339844 56.25 95.878906 56.890625 86.078125 C 58.097656 67.671875 72.917969 52.902344 91.367188 51.722656 C 92.171875 51.671875 92.984375 51.644531 93.785156 51.644531 C 114.199219 51.644531 130.8125 68.207031 130.8125 88.5625 C 130.8125 97.59375 127.507812 106.28125 121.511719 113.03125 Z M 121.511719 113.03125 " fill-opacity="1" fill-rule="nonzero"/></g><path fill="#0e153a" d="M 151.457031 73.875 C 151.8125 73.875 152.164062 73.820312 152.492188 73.707031 L 164.625 69.777344 C 165.484375 69.496094 166.1875 68.898438 166.597656 68.097656 C 167.015625 67.289062 167.085938 66.367188 166.800781 65.5 C 166.339844 64.109375 165.039062 63.175781 163.574219 63.175781 C 163.238281 63.175781 162.921875 63.222656 162.527344 63.332031 L 150.40625 67.277344 C 149.527344 67.5625 148.824219 68.152344 148.433594 68.9375 C 148.011719 69.742188 147.933594 70.671875 148.214844 71.542969 C 148.65625 72.917969 149.988281 73.875 151.457031 73.875 Z M 151.457031 73.875 " fill-opacity="1" fill-rule="nonzero"/><path fill="#0e153a" d="M 164.363281 108.484375 L 152.175781 104.535156 C 151.9375 104.472656 151.578125 104.394531 151.191406 104.394531 C 149.71875 104.394531 148.390625 105.359375 147.957031 106.730469 C 147.378906 108.496094 148.351562 110.410156 150.125 111 L 162.261719 114.929688 C 162.59375 115.039062 162.945312 115.09375 163.292969 115.09375 C 164.765625 115.09375 166.101562 114.136719 166.546875 112.761719 C 166.832031 111.90625 166.757812 110.984375 166.339844 110.179688 C 165.9375 109.375 165.214844 108.757812 164.363281 108.484375 Z M 164.363281 108.484375 " fill-opacity="1" fill-rule="nonzero"/><path fill="#0e153a" d="M 139.199219 27.136719 C 138.648438 26.734375 137.96875 26.519531 137.238281 26.519531 C 136.105469 26.519531 135.035156 27.050781 134.453125 27.890625 L 126.9375 38.191406 C 125.847656 39.707031 126.1875 41.824219 127.6875 42.90625 C 128.253906 43.324219 128.9375 43.546875 129.667969 43.546875 C 130.78125 43.546875 131.820312 43.03125 132.441406 42.167969 L 139.929688 31.867188 C 140.464844 31.140625 140.683594 30.246094 140.546875 29.351562 C 140.40625 28.457031 139.925781 27.671875 139.199219 27.136719 Z M 139.199219 27.136719 " fill-opacity="1" fill-rule="nonzero"/><g clip-path="url(#65c682152b)"><path fill="#0e153a" d="M 94.234375 31.789062 C 96.101562 31.789062 97.621094 30.269531 97.621094 28.40625 L 97.621094 15.683594 C 97.621094 13.808594 96.101562 12.28125 94.234375 12.28125 C 92.363281 12.28125 90.84375 13.808594 90.84375 15.683594 L 90.84375 28.40625 C 90.84375 30.269531 92.363281 31.789062 94.234375 31.789062 Z M 94.234375 31.789062 " fill-opacity="1" fill-rule="nonzero"/></g><path fill="#0e153a" d="M 58.644531 43.042969 C 59.371094 43.042969 60.054688 42.828125 60.621094 42.417969 C 61.351562 41.882812 61.828125 41.097656 61.972656 40.207031 C 62.109375 39.308594 61.894531 38.414062 61.359375 37.691406 L 53.855469 27.363281 C 53.238281 26.546875 52.15625 26.039062 51.03125 26.039062 C 50.304688 26.039062 49.625 26.253906 49.140625 26.628906 C 48.390625 27.15625 47.894531 27.964844 47.777344 28.828125 C 47.621094 29.714844 47.828125 30.613281 48.367188 31.371094 L 55.875 41.675781 C 56.496094 42.53125 57.53125 43.042969 58.644531 43.042969 Z M 58.644531 43.042969 " fill-opacity="1" fill-rule="nonzero"/><g clip-path="url(#83c773c836)"><path fill="#0e153a" d="M 37.5 66.476562 L 25.285156 62.507812 C 23.445312 62.015625 21.652344 62.976562 21.070312 64.710938 C 20.792969 65.582031 20.867188 66.515625 21.269531 67.257812 C 21.667969 68.082031 22.375 68.691406 23.257812 68.972656 L 35.375 72.902344 C 35.710938 73.011719 36.058594 73.070312 36.410156 73.070312 C 37.875 73.070312 39.214844 72.113281 39.664062 70.746094 C 39.945312 69.878906 39.871094 68.953125 39.453125 68.136719 C 39.039062 67.335938 38.34375 66.746094 37.5 66.476562 Z M 37.5 66.476562 " fill-opacity="1" fill-rule="nonzero"/></g><g clip-path="url(#6fb8489691)"><path fill="#0e153a" d="M 36.175781 103.589844 C 35.847656 103.589844 35.53125 103.636719 35.128906 103.75 L 23.007812 107.675781 C 22.148438 107.953125 21.429688 108.566406 21.035156 109.355469 C 20.609375 110.171875 20.53125 111.089844 20.816406 111.9375 C 21.25 113.324219 22.585938 114.292969 24.058594 114.292969 C 24.417969 114.292969 24.769531 114.234375 25.09375 114.125 L 37.226562 110.195312 C 38.089844 109.910156 38.789062 109.3125 39.203125 108.515625 C 39.617188 107.707031 39.691406 106.785156 39.40625 105.929688 C 38.949219 104.53125 37.652344 103.589844 36.175781 103.589844 Z M 36.175781 103.589844 " fill-opacity="1" fill-rule="nonzero"/></g><path fill="#0e153a" d="M 92.960938 59.628906 C 91.191406 59.628906 89.75 61.066406 89.75 62.832031 C 89.75 64.597656 91.191406 66.035156 92.960938 66.035156 C 104.949219 66.035156 114.703125 75.765625 114.703125 87.730469 C 114.703125 89.496094 116.144531 90.933594 117.914062 90.933594 C 119.683594 90.933594 121.121094 89.496094 121.121094 87.730469 C 121.125 72.234375 108.488281 59.628906 92.960938 59.628906 Z M 92.960938 59.628906 " fill-opacity="1" fill-rule="nonzero"/></svg>